<?xml version="1.0" encoding="UTF-8"?>
<svg id="Layer_2" xmlns="http://www.w3.org/2000/svg" viewBox="0 0 152.72 152.9">
  <defs>
    <style>
      .cls-1 {
        fill: none;
        stroke: #A50038;
        stroke-linecap: round;
        stroke-miterlimit: 10;
        stroke-width: 3px;
      }
    </style>
  </defs>
  <g id="Layer_3">
    <g>
      <polyline class="cls-1" points="76.03 77.67 107.92 44.22 107.92 28.17 123.72 11.85 123.72 27.64 139.51 27.9 123.72 44.76"/>
      <path class="cls-1" d="M150.52,65.72c3.38,24.59-5.73,50.44-24.45,66.88-18.49,16.24-44.99,22.74-68.83,16.4-22.79-6.06-42.25-23.32-50.8-45.32C-2.72,80.08,1.05,52.1,16.13,31.77S55.29.57,79.74,1.56c3.68.15,7.34.58,10.96,1.28"/>
      <path class="cls-1" d="M77.39,47.48c-19.51-.36-35,19.77-29.31,38.52,5.33,17.55,26.89,26.19,42.96,17.5,10.15-5.49,16.17-16.96,15.38-28.4"/>
      <path class="cls-1" d="M127.8,70.82c2.2,17.3-4.64,35.33-18.04,46.55s-32.03,15.31-48.75,10.62c-16.02-4.49-29.71-16.77-35.45-32.45-6.07-16.59-2.98-36.05,7.95-49.93,11.75-14.93,31.69-22.46,50.39-19.52"/>
    </g>
  </g>
</svg>