<?xml version="1.0" encoding="UTF-8"?>
<svg id="Layer_2" xmlns="http://www.w3.org/2000/svg" viewBox="0 0 153.64 143.42">
  <defs>
    <style>
      .cls-1, .cls-2 {
        fill: none;
        stroke: #A50038;
        stroke-miterlimit: 10;
        stroke-width: 3px;
      }

      .cls-2 {
        stroke-linecap: round;
      }
    </style>
  </defs>
  <g id="Layer_4">
    <g>
      <path class="cls-2" d="M104.07,105.3s-3.8-1.84-23.71.35c0,0-32.91,5.18-32.91-11.39,0,0-.69-6.9,6.9-7.59,6.66-.61,35.06,1.44,54.99-2.23,6.83-1.26,13.88.23,19.48,4.35,5.7,4.2,13.4,11.18,22.88,22.73l-22.78,29s-6.75-15.46-23.5-18.32c-2.39-.41-4.84-.34-7.23.08-7.27,1.3-17.83,2.24-37.62.97-13.73-.88-58.86-55.41-58.86-55.41,0,0,3.74-9.72,15.36,0l22.79,17.04"/>
      <polygon class="cls-1" points="114.88 30.23 100.03 68.38 135.59 30.23 114.88 30.23"/>
      <polygon class="cls-1" points="44.8 22.9 67.07 22.9 82.26 1.5 61.2 1.5 44.8 22.9"/>
      <polygon class="cls-1" points="65.52 30.23 80.36 68.38 44.8 30.23 65.52 30.23"/>
      <polygon class="cls-1" points="135.59 22.9 113.33 22.9 98.14 1.5 119.19 1.5 135.59 22.9"/>
      <path class="cls-1" d="M106.16,30.23c-5.27,14.17-10.55,28.35-15.82,42.52-5.66-14.17-11.32-28.35-16.98-42.52h32.8Z"/>
      <path class="cls-1" d="M103.57,22.9c-4.44-6.49-8.88-12.98-13.32-19.47-4.77,6.49-9.53,12.98-14.3,19.47h27.62Z"/>
    </g>
  </g>
</svg>