<?xml version="1.0" encoding="UTF-8"?>
<svg id="Layer_2" xmlns="http://www.w3.org/2000/svg" viewBox="0 0 141.63 151.58">
  <defs>
    <style>
      .cls-1, .cls-2, .cls-3 {
        fill: none;
        stroke: #A50038;
        stroke-width: 3px;
      }

      .cls-1, .cls-3 {
        stroke-linejoin: round;
      }

      .cls-2 {
        stroke-miterlimit: 10;
      }

      .cls-2, .cls-3 {
        stroke-linecap: round;
      }
    </style>
  </defs>
  <g id="Layer_1-2" data-name="Layer_1">
    <g>
      <path class="cls-1" d="M109.28,71.34c0,10.92-4.55,20.77-11.86,27.77h0c-.42.32-.82.65-1.21,1-.35.32-.7.65-1.02.98,0,0,0,0,0,0-3.44,3.54-5.55,8.37-5.55,13.68,0,.69.04,6.39.11,7.07h-37.82c.07-.68.1-6.38.1-7.07,0-5.3-2.1-10.12-5.52-13.66-.72-.74-1.48-1.42-2.31-2.05-.69-.66-1.35-1.35-1.99-2.06-6.12-6.81-9.83-15.81-9.83-25.68,0-21.25,17.22-38.46,38.46-38.46s38.46,17.22,38.46,38.46Z"/>
      <path class="cls-2" d="M87.72,127.98h-33.81"/>
      <path class="cls-2" d="M86.73,133.99h-31.83"/>
      <path class="cls-3" d="M86.61,139.92c0,5.62-7.07,10.17-15.8,10.17s-15.79-4.55-15.79-10.17h31.6Z"/>
      <g>
        <line class="cls-3" x1="1.76" y1="76.86" x2="21.24" y2="75.16"/>
        <line class="cls-3" x1="8.78" y1="39.89" x2="26.28" y2="48.61"/>
        <line class="cls-3" x1="34.08" y1="12.03" x2="44.44" y2="28.61"/>
        <line class="cls-3" x1="70.2" y1="1.5" x2="70.38" y2="21.05"/>
        <line class="cls-3" x1="106.51" y1="11.39" x2="96.44" y2="28.16"/>
        <line class="cls-3" x1="132.3" y1="38.8" x2="114.95" y2="47.83"/>
        <line class="cls-3" x1="139.96" y1="75.64" x2="120.46" y2="74.28"/>
      </g>
    </g>
  </g>
</svg>