<svg width="17" height="32" viewBox="0 0 17 32" fill="none" xmlns="http://www.w3.org/2000/svg">
<path d="M15.8049 5.47312V1H1V4.09754M15.8049 5.47312C15.0504 5.56071 14.0829 5.3716 12.8248 4.65892C9.06038 2.52488 8.90312 3.90444 5.24618 5.0073C2.51692 5.83145 2.71201 4.0219 1 4.09754M15.8049 5.47312V12.4526C15.8049 13.3763 15.5342 14.28 15.0226 15.0484C13.7704 16.9257 12.8268 18.4983 12.8268 22.4479C12.8268 25.2787 13.3026 27.789 14.0352 29.3537C14.3955 30.1201 13.848 31 13 31H3.8069C2.95886 31 2.41141 30.1201 2.77173 29.3517C3.50431 27.787 3.98009 25.2787 3.98009 22.4479C3.98009 18.5959 2.99469 16.7684 1.82814 15.0564C1.29263 14.2721 1 13.3504 1 12.4008V4.09754" stroke="#FFFFFB" stroke-width="0.749739" stroke-linecap="round" stroke-linejoin="round"/>
<path d="M10.4751 9.91752L7.13133 15.9674H6.6842V15.9363L10.0319 9.88252H10.4751V9.91752ZM10.9689 15.5708C10.9689 15.6797 10.9313 15.773 10.8561 15.8508C10.7836 15.9285 10.6941 15.9674 10.5879 15.9674H9.45642C9.36051 15.9674 9.27367 15.9259 9.19591 15.843C9.12074 15.7574 9.08316 15.6667 9.08316 15.5708V13.273C9.08316 13.1796 9.12204 13.0902 9.1998 13.0047C9.27756 12.9165 9.3631 12.8725 9.45642 12.8725H10.5879C10.6889 12.8725 10.7771 12.9139 10.8522 12.9969C10.93 13.0798 10.9689 13.1719 10.9689 13.273V15.5708ZM10.4984 15.5319V13.3274H9.55362V15.5319H10.4984ZM8.09558 12.5809C8.09558 12.6897 8.05799 12.783 7.98282 12.8608C7.91025 12.9386 7.82082 12.9775 7.71455 12.9775H6.58311C6.4872 12.9775 6.40037 12.936 6.3226 12.853C6.24743 12.7675 6.20985 12.6768 6.20985 12.5809V10.283C6.20985 10.1897 6.24873 10.1003 6.32649 10.0147C6.40425 9.92659 6.48979 9.88252 6.58311 9.88252H7.71455C7.81564 9.88252 7.90377 9.924 7.97894 10.0069C8.0567 10.0899 8.09558 10.1819 8.09558 10.283V12.5809ZM7.62512 12.542V10.3374H6.68031V12.542H7.62512Z" fill="#FFFFFB"/>
</svg>
