<svg width="17" height="32" viewBox="0 0 17 32" fill="none" xmlns="http://www.w3.org/2000/svg">
<path d="M15.8049 5.47312V1H1V4.09754M15.8049 5.47312C15.0504 5.56071 14.0829 5.3716 12.8248 4.65892C9.06038 2.52488 8.90312 3.90444 5.24618 5.0073C2.51692 5.83145 2.71201 4.0219 1 4.09754M15.8049 5.47312V12.4526C15.8049 13.3763 15.5342 14.28 15.0226 15.0484C13.7704 16.9257 12.8268 18.4983 12.8268 22.4479C12.8268 25.2787 13.3026 27.789 14.0352 29.3537C14.3955 30.1201 13.848 31 13 31H3.8069C2.95886 31 2.41141 30.1201 2.77173 29.3517C3.50431 27.787 3.98009 25.2787 3.98009 22.4479C3.98009 18.5959 2.99469 16.7684 1.82813 15.0564C1.29263 14.2721 1 13.3504 1 12.4008V4.09754" stroke="#FFFFFB" stroke-width="0.75" stroke-linecap="round" stroke-linejoin="round"/>
<path d="M6.27161 14.3749H4.27312V8.29006H6.24828V8.76829H4.81357V11.0389H6.11997V11.525H4.81357V13.8967H6.27161V14.3749ZM9.55706 13.9434C9.55706 14.0704 9.51688 14.1741 9.43652 14.2544C9.35617 14.3348 9.25249 14.3749 9.12548 14.3749H7.11921V8.29006H9.10992C9.23693 8.29006 9.34062 8.33023 9.42097 8.41059C9.50133 8.49094 9.5415 8.59462 9.5415 8.72164V10.5296C9.5415 10.6903 9.46892 10.8251 9.32377 10.934C9.18121 11.0195 9.03864 11.105 8.89608 11.1906L9.35487 11.4861C9.48966 11.569 9.55706 11.6986 9.55706 11.8749V13.9434ZM8.99717 10.5996V8.76829H7.65966V10.9651H8.45672L8.99717 10.5996ZM9.01272 13.8967V11.7932L8.4645 11.4355H7.65966V13.8967H9.01272ZM12.9397 13.9434C12.9397 14.0704 12.8982 14.1741 12.8153 14.2544C12.7323 14.3348 12.6274 14.3749 12.5003 14.3749H10.9334C10.8064 14.3749 10.7027 14.3348 10.6224 14.2544C10.542 14.1741 10.5019 14.0704 10.5019 13.9434V8.72164C10.5019 8.59462 10.542 8.49094 10.6224 8.41059C10.7027 8.33023 10.8064 8.29006 10.9334 8.29006H12.5003C12.6274 8.29006 12.7323 8.33023 12.8153 8.41059C12.8982 8.49094 12.9397 8.59462 12.9397 8.72164V10.1369H12.3954V8.76829H11.0423V13.8967H12.3954V12.3998H12.9397V13.9434Z" fill="#FFFFFB"/>
</svg>
