<svg width="17" height="32" viewBox="0 0 17 32" fill="none" xmlns="http://www.w3.org/2000/svg">
<path d="M15.8049 5.47312V1H1V4.09754M15.8049 5.47312C15.0504 5.56071 14.0829 5.3716 12.8248 4.65892C9.06038 2.52488 8.90312 3.90444 5.24618 5.0073C2.51692 5.83145 2.71201 4.0219 1 4.09754M15.8049 5.47312V12.4526C15.8049 13.3763 15.5342 14.28 15.0226 15.0484C13.7704 16.9257 12.8268 18.4983 12.8268 22.4479C12.8268 25.2787 13.3026 27.789 14.0352 29.3537C14.3955 30.1201 13.848 31 13 31H3.8069C2.95886 31 2.41141 30.1201 2.77173 29.3517C3.50431 27.787 3.98009 25.2787 3.98009 22.4479C3.98009 18.5959 2.99469 16.7684 1.82813 15.0564C1.29263 14.2721 1 13.3504 1 12.4008V4.09754" stroke="#FFFFFB" stroke-width="0.75" stroke-linecap="round" stroke-linejoin="round"/>
<path d="M5.44135 14.3749H4.90091V8.29006H5.44135V14.3749ZM8.89399 13.9434C8.89399 14.0704 8.85381 14.1741 8.77346 14.2544C8.6931 14.3348 8.58942 14.3749 8.46241 14.3749H6.45615V8.29006H8.44686C8.57387 8.29006 8.67755 8.33023 8.75791 8.41059C8.83826 8.49094 8.87844 8.59462 8.87844 8.72164V10.5296C8.87844 10.6903 8.80586 10.8251 8.6607 10.934C8.51814 11.0195 8.37558 11.105 8.23301 11.1906L8.69181 11.4861C8.8266 11.569 8.89399 11.6986 8.89399 11.8749V13.9434ZM8.3341 10.5996V8.76829H6.99659V10.9651H7.79366L8.3341 10.5996ZM8.34965 13.8967V11.7932L7.80143 11.4355H6.99659V13.8967H8.34965ZM12.3622 13.9434C12.3622 14.0704 12.3207 14.1741 12.2378 14.2544C12.1574 14.3348 12.0537 14.3749 11.9267 14.3749H10.2704C10.1434 14.3749 10.0397 14.3348 9.95933 14.2544C9.87898 14.1741 9.8388 14.0704 9.8388 13.9434V8.29006H10.3792V13.8967H11.8217V8.29006H12.3622V13.9434Z" fill="#FFFFFB"/>
</svg>
