<svg width="19" height="33" viewBox="0 0 19 33" fill="none" xmlns="http://www.w3.org/2000/svg">
<path d="M11.5338 17.0389V32.2435H1V17.0326C1 15.9686 1.22641 14.9125 1.67766 13.9293M11.5338 17.0389C10.4634 15.7169 9.53404 15.6551 7.5929 15.7406C5.2306 15.8435 6.62075 14.5769 4.49595 13.5636C3.21663 12.954 2.39806 13.5129 1.67766 13.9293M11.5338 17.0389V17.0326C11.5338 15.8103 11.2361 14.599 10.6392 13.4971C10.3938 13.0427 10.1658 12.5692 9.95995 12.0768C9.64487 11.3248 9.39788 10.5774 9.21738 9.84437C9.0353 9.1113 8.91972 8.39564 8.86747 7.70848L8.83422 1H3.69954L3.66471 7.70848C3.5618 9.0828 3.20238 10.5743 2.57381 12.0768C2.3664 12.5692 2.1384 13.0427 1.89299 13.4971C1.8154 13.6396 1.74416 13.7836 1.67766 13.9293M13.353 1H17.9588M13.3942 32.2435H18M15.6567 4.0732L15.739 29.1702M15.6567 1.04908L17.8765 3.03772H13.4369L15.6567 1.04908ZM15.6979 32.1944L17.9177 30.2057H13.4781L15.6979 32.1944Z" stroke="#FFFFFB" stroke-width="0.781086" stroke-linecap="round" stroke-linejoin="round"/>
</svg>
