<svg width="36" height="40" viewBox="0 0 36 40" fill="none" xmlns="http://www.w3.org/2000/svg">
<path d="M10.068 0C11.4602 0 12.585 1.11719 12.585 2.5V5H22.6531V2.5C22.6531 1.11719 23.7778 0 25.1701 0C26.5623 0 27.6871 1.11719 27.6871 2.5V5H31.4626C33.547 5 35.2381 6.67969 35.2381 8.75V12.5H0V8.75C0 6.67969 1.69111 5 3.77551 5H7.55102V2.5C7.55102 1.11719 8.67581 0 10.068 0ZM0 15H35.2381V36.25C35.2381 38.3203 33.547 40 31.4626 40H3.77551C1.69111 40 0 38.3203 0 36.25V15ZM5.03401 21.25V23.75C5.03401 24.4375 5.60034 25 6.29252 25H8.80952C9.5017 25 10.068 24.4375 10.068 23.75V21.25C10.068 20.5625 9.5017 20 8.80952 20H6.29252C5.60034 20 5.03401 20.5625 5.03401 21.25ZM15.102 21.25V23.75C15.102 24.4375 15.6684 25 16.3605 25H18.8776C19.5697 25 20.1361 24.4375 20.1361 23.75V21.25C20.1361 20.5625 19.5697 20 18.8776 20H16.3605C15.6684 20 15.102 20.5625 15.102 21.25ZM26.4286 20C25.7364 20 25.1701 20.5625 25.1701 21.25V23.75C25.1701 24.4375 25.7364 25 26.4286 25H28.9456C29.6378 25 30.2041 24.4375 30.2041 23.75V21.25C30.2041 20.5625 29.6378 20 28.9456 20H26.4286ZM5.03401 31.25V33.75C5.03401 34.4375 5.60034 35 6.29252 35H8.80952C9.5017 35 10.068 34.4375 10.068 33.75V31.25C10.068 30.5625 9.5017 30 8.80952 30H6.29252C5.60034 30 5.03401 30.5625 5.03401 31.25ZM16.3605 30C15.6684 30 15.102 30.5625 15.102 31.25V33.75C15.102 34.4375 15.6684 35 16.3605 35H18.8776C19.5697 35 20.1361 34.4375 20.1361 33.75V31.25C20.1361 30.5625 19.5697 30 18.8776 30H16.3605ZM25.1701 31.25V33.75C25.1701 34.4375 25.7364 35 26.4286 35H28.9456C29.6378 35 30.2041 34.4375 30.2041 33.75V31.25C30.2041 30.5625 29.6378 30 28.9456 30H26.4286C25.7364 30 25.1701 30.5625 25.1701 31.25Z" fill="white"/>
</svg>
