<svg width="12" height="32" viewBox="0 0 12 32" fill="none" xmlns="http://www.w3.org/2000/svg">
<path d="M11.1145 16.4006V31H1V16.3945C1 15.3729 1.2174 14.3588 1.65069 13.4147M11.1145 16.4006C10.0868 15.1311 9.1944 15.0719 7.33051 15.154C5.06223 15.2528 6.39705 14.0365 4.35681 13.0635C3.12841 12.4782 2.34242 13.0149 1.65069 13.4147M11.1145 16.4006L11.1146 16.3945C11.1146 15.2209 10.8288 14.0578 10.2556 12.9997C10.02 12.5634 9.80104 12.1088 9.6034 11.636C9.30086 10.9139 9.06369 10.1963 8.89038 9.49238C8.71555 8.78848 8.60456 8.1013 8.55439 7.4415L8.52247 1H3.59215L3.5587 7.4415C3.45988 8.76111 3.11477 10.1932 2.51122 11.636C2.31206 12.1088 2.09313 12.5634 1.85749 12.9997C1.78299 13.1365 1.71454 13.2749 1.65069 13.4147" stroke="#FFFFFB" stroke-width="0.750001" stroke-linejoin="round"/>
<path d="M7.77344 20.1572C7.77344 20.333 7.72803 20.4897 7.63721 20.6274L6.74072 21.9941V23.4531H6.12549V22.1392C6.12549 21.9458 6.16797 21.7861 6.25293 21.6602L7.1626 20.3022V18.6631H5.75635V20.21H5.14551V18.6103C5.14551 18.4668 5.19238 18.3496 5.28613 18.2588C5.37988 18.168 5.49854 18.1226 5.64209 18.1226H7.27686C7.42334 18.1226 7.542 18.168 7.63282 18.2588C7.72657 18.3496 7.77344 18.4668 7.77344 18.6103V20.1572ZM6.76709 25H6.09912V24.2266H6.76709V25Z" fill="#FFFFFB"/>
</svg>
